# xmcd
#
# Track frame offsets:
#	150
#	12895
#	24920
#	33995
#	44057
#	54182
#	66807
#	79432
#	90107
#	102895
#	114070
#	123582
#	133907
#	144945
#	159057
#	170532
#	179830
#	192762
#	203850
#
# Disc length: 2844 seconds
#
# Revision: 1
# Processed by: cddbd v1.5.2PL0 Copyright (c) Steve Scherf et al.
# Submitted via: audiograbber 1.83.01
#
DISCID=f40b1a13
DTITLE=Pearl Woods - Sippin' Sorrow (With A Spoon)
DYEAR=2004
DGENRE=Soul
TTITLE0=Be My Baby
TTITLE1=My Love Is Your Love
TTITLE2=Right Now
TTITLE3=Sippin' Sorrow
TTITLE4=I'll Be A Crybaby From Now On
TTITLE5=Think Of Poor Me
TTITLE6=Sloppin'
TTITLE7=One More Time
TTITLE8=Lonely Avenue
TTITLE9=Don't Tell It All
TTITLE10=Fool Like Me
TTITLE11=Stickum' Up Baby
TTITLE12=I'm Gonna Stick With You
TTITLE13=The Last Mile
TTITLE14=Let Him Go
TTITLE15=Something Touched Me
TTITLE16=It's Lovin' Time
TTITLE17=He's So Lazy
TTITLE18=I Can't Wait
EXTD=
EXTT0=
EXTT1=
EXTT2=
EXTT3=
EXTT4=
EXTT5=
EXTT6=
EXTT7=
EXTT8=
EXTT9=
EXTT10=
EXTT11=
EXTT12=
EXTT13=
EXTT14=
EXTT15=
EXTT16=
EXTT17=
EXTT18=
PLAYORDER=
